<svg width="150" height="150" viewBox="0 0 150 150" fill="none" xmlns="http://www.w3.org/2000/svg">
<path d="M19 45.7891C17.3431 45.7891 16 47.1322 16 48.7891V116.211C16 117.868 17.3431 119.211 19 119.211H51.4707C54.7573 119.211 77.3916 118.544 77.3916 97.8789C77.3916 90.3712 74.3892 85.7453 70.9889 82.9321C68.8582 81.1693 68.5736 76.7334 70.3562 74.6192C72.3494 72.255 73.9189 68.8802 73.9189 64.0205C73.9189 58.4705 73.1283 45.7891 50.4785 45.7891H19ZM96.8633 53.6104C96.5312 54.5 96.399 59.5 96.8633 60.3076C97.3276 61.1152 123.531 61 124.272 60.3076C125.014 59.6152 125.031 54 124.272 53.6104C123.514 53.2207 97.1953 52.7207 96.8633 53.6104ZM32.123 61.3154C32.123 59.6586 33.4662 58.3154 35.123 58.3154H47.2539C48.6802 58.3154 58.292 57.5558 58.292 66.749C58.292 74.609 51.3467 75.4307 48.4941 75.4307H35.123C33.4662 75.4307 32.123 74.0875 32.123 72.4307V61.3154ZM111.25 66.3848C90.5226 66.3848 86.1973 84.3837 86.1973 92.1816C86.1973 115.328 105.173 117.979 111.25 117.979C124.461 117.979 130.044 111.086 132.711 105.327C133.567 103.479 132.107 101.483 130.07 101.483H124.507C123.189 101.483 121.988 102.353 121.177 103.392C119.619 105.389 116.49 107.933 111.746 107.933C103.029 107.933 100.58 102.567 99.9337 98.3943C99.6799 96.757 101.059 95.4062 102.716 95.4062H132.094C133.689 95.4062 135.017 94.1578 134.989 92.5632C134.768 79.898 128.492 66.3848 111.25 66.3848ZM110.878 76.4307C114.18 76.4307 116.847 77.3918 118.443 79.1592C119.493 80.3306 120.361 81.8569 120.926 83.7379C121.434 85.4321 120.014 86.9727 118.245 86.9727H102.919C101.185 86.9727 99.8415 85.5003 100.312 83.8313C100.32 83.8036 100.328 83.7759 100.336 83.748C100.677 82.5233 101.204 81.3606 102.072 80.2754C102.94 79.2057 104.15 78.2755 105.545 77.5469C106.971 76.8027 108.739 76.4307 110.878 76.4307ZM32.123 89.4688C32.123 87.8119 33.4662 86.4688 35.123 86.4688H49.6104C53.083 86.4688 61.2686 87.0114 61.2686 97.0107C61.2686 106.7 50.9591 106.685 49.3623 106.685H35.123C33.4662 106.685 32.123 105.341 32.123 103.685V89.4688Z" fill="#372718"/>
<path d="M110.128 48C110.294 48 110.436 47.8797 110.461 47.7218C111.391 42.0498 113.628 40.5061 118.854 39.2266C118.957 39.2015 119.031 39.112 119.031 39.0098C119.031 38.8989 118.945 38.8047 118.831 38.7884C114.38 38.1513 112.29 36.6396 110.269 30.1656C110.239 30.069 110.146 30 110.041 30C109.927 30 109.829 30.0808 109.807 30.1881C108.564 36.2647 106.068 37.4729 101.199 38.8902C101.1 38.9188 101.031 39.0067 101.031 39.1058C101.031 39.2199 101.122 39.316 101.24 39.3306C106.755 40.0198 109.002 43.5753 109.796 47.7312C109.825 47.8861 109.965 48 110.128 48Z" fill="#372718" stroke="#372718" stroke-width="3" stroke-linejoin="round"/>
</svg>
