<svg width="150" height="150" viewBox="0 0 150 150" fill="none" xmlns="http://www.w3.org/2000/svg">
<path d="M75.5 23C104.493 23 128 46.4544 128 75.3818C128 98.2373 113.304 117.618 92.8467 124.772C92.8992 124.384 93 124.056 93 123.603V111.669C93 106.374 89.4952 99.3459 84.6914 96.8447C102.148 95.0419 110.479 86.3684 110.479 74.5957C110.478 69.5323 108.325 64.6386 104.668 60.5137C105.889 56.4191 107.424 48.017 104.222 44.8262C96.338 44.8263 91.578 49.9335 90.4492 51.2998C86.5206 49.951 82.1984 49.1915 77.666 49.1914C73.1423 49.1914 68.837 49.9509 64.917 51.291C63.7751 49.916 59.0195 44.8263 51.1533 44.8262C47.964 48.0127 49.482 56.3802 50.6895 60.4834C47.0101 64.6171 44.8448 69.5235 44.8447 74.5957C44.8447 86.3771 53.1875 95.0546 70.6699 96.8486C67.6381 98.4288 65.1577 101.777 63.7227 105.413C61.0539 105.832 58.2186 105.941 56.3242 105.941C52.4175 105.941 51.433 105.322 49.3418 102.585C47.2419 99.8525 45.0108 98.0106 42.3203 97.251C40.8634 97.0982 39.9007 98.2289 41.165 99.2197C45.426 102.197 45.7241 107.063 47.4434 110.245C48.9921 113.109 52.1855 114.65 55.7773 114.65H62.375V123.603C62.375 124.62 62.5324 125.44 62.7773 126.147C39.94 120.464 23.0001 99.9266 23 75.3818C23 46.4544 46.5069 23 75.5 23ZM40.707 76.8828C39.9317 76.5397 39.0614 76.8237 38.6094 77.4688C37.0545 79.6876 35.8385 80.61 34.6631 81.0137C33.5841 81.384 32.3546 81.3912 30.5479 81.1992L29.7373 81.1045C29.0498 81.0194 28.3651 81.3595 28.0264 81.9805L27.9639 82.1084L27.9043 82.2617C27.6463 83.034 27.9788 83.8594 28.6426 84.2627C30.4796 85.3783 31.4109 86.6941 31.834 88.0645C32.2692 89.4744 32.2103 91.0907 31.792 92.8389C31.5934 93.6698 32.0058 94.5492 32.8145 94.9072C33.649 95.2764 34.5914 94.9552 35.0576 94.2334C36.4227 92.1191 37.5243 91.184 38.6445 90.7637C39.8038 90.3288 41.2513 90.3381 43.5801 90.7324C44.3308 90.8594 45.103 90.4718 45.4268 89.7412C45.7776 88.9487 45.4746 88.0478 44.7773 87.6064C43.1934 86.6039 42.3729 85.773 41.9316 84.6514C41.4629 83.4595 41.3302 81.7085 41.7119 78.6631C41.7969 77.9836 41.4664 77.2904 40.8369 76.9463L40.707 76.8828Z" fill="#372718"/>
</svg>
