<svg width="150" height="150" viewBox="0 0 150 150" fill="none" xmlns="http://www.w3.org/2000/svg">
<path d="M41.1077 49C41.2923 49 41.4492 48.8597 41.478 48.6754C42.5113 42.0581 44.9968 40.2571 50.8034 38.7644C50.9176 38.735 51 38.6307 51 38.5115C51 38.382 50.9038 38.2722 50.7772 38.2531C45.8323 37.5099 43.5093 35.7462 41.2639 28.1932C41.2305 28.0805 41.1271 28 41.0107 28C40.8845 28 40.7755 28.0942 40.7511 28.2195C39.37 35.3089 36.5966 36.7184 31.1863 38.3718C31.0768 38.4053 31 38.5078 31 38.6235C31 38.7566 31.1012 38.8686 31.2318 38.8857C37.3592 39.6897 39.8567 43.8379 40.7385 48.6864C40.7713 48.8671 40.9261 49 41.1077 49Z" fill="#372718"/>
<path d="M63.5 60.4998C61.8431 60.4998 60.5 61.8429 60.5 63.4998V119C60.5 120.657 61.8431 122 63.5 122H76.5156C78.1663 122 79.5067 120.672 79.514 119.021C79.549 111.118 79.6283 89.6951 79.5 81.9998C79.3415 72.4876 99.8358 72.0327 100 81.9998C100.132 90.0393 100.051 111.134 100.015 118.992C100.007 120.656 101.353 122 103.016 122H116.426C118.111 122 119.467 120.623 119.432 118.938C119.295 112.408 119 96.2949 119 78.9998C119 58.8955 95.7679 52.7806 82.3303 64.175C80.8271 65.4497 78 64.473 78 62.5021V62.5021C78 61.3962 77.1036 60.4998 75.9977 60.4998H63.5Z" fill="#372718"/>
<path d="M34.5 60.4998C32.8431 60.4998 31.5 61.8429 31.5 63.4998V119C31.5 120.657 32.8431 122 34.5 122H47.5C49.1569 122 50.5 120.657 50.5 119V63.4998C50.5 61.8429 49.1569 60.4998 47.5 60.4998H34.5Z" fill="#372718"/>
<path d="M41.1077 49C41.2923 49 41.4492 48.8597 41.478 48.6754C42.5113 42.0581 44.9968 40.2571 50.8034 38.7644C50.9176 38.735 51 38.6307 51 38.5115C51 38.382 50.9038 38.2722 50.7772 38.2531C45.8323 37.5099 43.5093 35.7462 41.2639 28.1932C41.2305 28.0805 41.1271 28 41.0107 28C40.8845 28 40.7755 28.0942 40.7511 28.2195C39.37 35.3089 36.5966 36.7184 31.1863 38.3718C31.0768 38.4053 31 38.5078 31 38.6235C31 38.7566 31.1012 38.8686 31.2318 38.8857C37.3592 39.6897 39.8567 43.8379 40.7385 48.6864C40.7713 48.8671 40.9261 49 41.1077 49Z" stroke="#372718" stroke-width="2" stroke-linejoin="round"/>
<path d="M63.5 60.4998C61.8431 60.4998 60.5 61.8429 60.5 63.4998V119C60.5 120.657 61.8431 122 63.5 122H76.5156C78.1663 122 79.5067 120.672 79.514 119.021C79.549 111.118 79.6283 89.6951 79.5 81.9998C79.3415 72.4876 99.8358 72.0327 100 81.9998C100.132 90.0393 100.051 111.134 100.015 118.992C100.007 120.656 101.353 122 103.016 122H116.426C118.111 122 119.467 120.623 119.432 118.938C119.295 112.408 119 96.2949 119 78.9998C119 58.8955 95.7679 52.7806 82.3303 64.175C80.8271 65.4497 78 64.473 78 62.5021V62.5021C78 61.3962 77.1036 60.4998 75.9977 60.4998H63.5Z" stroke="#372718" stroke-width="2" stroke-linejoin="round"/>
<path d="M34.5 60.4998C32.8431 60.4998 31.5 61.8429 31.5 63.4998V119C31.5 120.657 32.8431 122 34.5 122H47.5C49.1569 122 50.5 120.657 50.5 119V63.4998C50.5 61.8429 49.1569 60.4998 47.5 60.4998H34.5Z" stroke="#372718" stroke-width="2" stroke-linejoin="round"/>
</svg>
