<svg width="150" height="150" viewBox="0 0 150 150" fill="none" xmlns="http://www.w3.org/2000/svg">
<path d="M75.0969 55C75.263 55 75.4043 54.8797 75.4302 54.7218C76.3602 49.0498 78.5971 47.5061 83.823 46.2266C83.9259 46.2015 84 46.112 84 46.0098C84 45.8989 83.9134 45.8047 83.7994 45.7884C79.3491 45.1513 77.2584 43.6396 75.2376 37.1656C75.2074 37.069 75.1144 37 75.0096 37C74.896 37 74.798 37.0808 74.776 37.1881C73.533 43.2647 71.037 44.4729 66.1677 45.8902C66.0691 45.9188 66 46.0067 66 46.1058C66 46.2199 66.091 46.316 66.2086 46.3306C71.7233 47.0198 73.971 50.5753 74.7646 54.7312C74.7942 54.8861 74.9335 55 75.0969 55Z" fill="#372718" stroke="#372718" stroke-width="3"/>
<path d="M18.5 61.5V133.5M18.5 61.5L26 65.4698M18.5 61.5L26 55.4602M18.5 133.5H131M18.5 133.5L71.9732 89.8036M131 133.5V61.5M131 133.5L78 89.8036M131 61.5L122.5 65.4698M131 61.5L122.5 54.5938M78 89.8036V89.8036C76.2291 88.4438 73.7499 88.4514 71.9732 89.8036V89.8036M78 89.8036L122.5 65.4698M71.9732 89.8036L26 65.4698M63 77.5H86.5M56.5 70H94M45.5 62.5H104M26 65.4698V55.4602M122.5 65.4698V54.5938M122.5 54.5938V36.5C122.5 33.7386 120.261 31.5 117.5 31.5H94.0769M94.0769 31.5L78.139 18.5504C76.3083 17.063 73.6871 17.0573 71.85 18.5368L55.7527 31.5M94.0769 31.5H55.7527M55.7527 31.5H31C28.2386 31.5 26 33.7386 26 36.5V55.4602" stroke="#372718" stroke-width="3.5" stroke-linecap="round" stroke-linejoin="round"/>
</svg>
