<svg width="150" height="150" viewBox="0 0 150 150" fill="none" xmlns="http://www.w3.org/2000/svg">
<path d="M41.5 120L16.4352 129.234C14.9509 129.781 13.4493 128.47 13.7911 126.926L26.2819 70.4855C26.4191 69.8657 26.8423 69.3479 27.4224 69.0901L49 59.5M41.5 120L75 130.5M41.5 120L49 59.5M75 130.5L108.5 120M75 130.5V71M108.5 120L134.143 129.285C135.613 129.817 137.097 128.533 136.783 127.003L125.213 70.5374C125.08 69.8885 124.634 69.3475 124.023 69.0927L101 59.5M108.5 120L101 59.5M101 59.5L75 71M75 71L49 59.5" stroke="#372718" stroke-width="4" stroke-linecap="round" stroke-linejoin="round"/>
<path d="M75.1723 56C75.4676 56 75.7187 55.7729 75.7648 55.4744C77.4181 44.7607 81.3949 41.8448 90.6854 39.4281C90.8682 39.3805 91 39.2116 91 39.0186C91 38.809 90.8461 38.6312 90.6435 38.6003C82.7317 37.397 79.0149 34.5414 75.4223 22.3128C75.3687 22.1304 75.2033 22 75.0171 22C74.8152 22 74.6408 22.1526 74.6018 22.3553C72.392 33.8334 67.9546 36.1155 59.2981 38.7925C59.1229 38.8467 59 39.0126 59 39.1999C59 39.4155 59.1619 39.5968 59.3708 39.6245C69.1747 40.9262 73.1707 47.6423 74.5815 55.4923C74.6341 55.7848 74.8817 56 75.1723 56Z" fill="#372718" stroke="#372718" stroke-width="2" stroke-linejoin="round"/>
</svg>
