<svg width="150" height="150" viewBox="0 0 150 150" fill="none" xmlns="http://www.w3.org/2000/svg">
<path d="M65.5 28H85.5M111.478 22.5216L111.021 128.522C111.01 131.275 108.775 133.5 106.022 133.5H44.5C41.7386 133.5 39.5 131.261 39.5 128.5V22.5C39.5 19.7386 41.7386 17.5 44.5 17.5H106.478C109.248 17.5 111.49 19.7517 111.478 22.5216Z" stroke="#372718" stroke-width="4" stroke-linecap="round" stroke-linejoin="round"/>
<path d="M75.5808 124C75.7192 124 75.8369 123.893 75.8585 123.753C76.6335 118.711 78.4976 117.339 82.8525 116.201C82.9382 116.179 83 116.1 83 116.009C83 115.91 82.9279 115.826 82.8329 115.812C79.1242 115.246 77.382 113.902 75.698 108.147C75.6728 108.061 75.5953 108 75.508 108C75.4134 108 75.3316 108.072 75.3133 108.167C74.2775 113.569 72.1975 114.643 68.1397 115.902C68.0576 115.928 68 116.006 68 116.094C68 116.196 68.0759 116.281 68.1738 116.294C72.7694 116.906 74.6425 120.067 75.3038 123.761C75.3285 123.899 75.4446 124 75.5808 124Z" fill="#372718" stroke="#372718" stroke-width="3"/>
</svg>
