<svg width="150" height="150" viewBox="0 0 150 150" fill="none" xmlns="http://www.w3.org/2000/svg">
<path d="M109.5 90.5H133.5C136.262 90.5 138.5 88.2614 138.5 85.5V34.5C138.5 31.7385 136.262 29.5 133.5 29.5H80.5M109.5 90.5V133C109.5 135.761 107.262 138 104.5 138H46.5001C43.7387 138 41.5001 135.761 41.5001 133V82C41.5001 79.2385 43.7387 77 46.5001 77H70.5001M109.5 90.5V82C109.5 79.2385 107.262 77 104.5 77H70.5001M70.5001 77V71.5M70.5001 71.5H17.5C14.7386 71.5 12.5 69.2614 12.5 66.5V15.5C12.5 12.7386 14.7386 10.5 17.5 10.5H41.5H75.5C78.2614 10.5 80.5 12.7386 80.5 15.5V24V29.5M70.5001 71.5V34.5C70.5001 31.7385 72.7387 29.5 75.5001 29.5H80.5M91.4033 47.4197C88.0398 50.9172 88.0637 56.7516 91.4033 60.2243L101.783 71.024C103.75 73.0705 107.025 73.0709 108.992 71.025L119.379 60.2243C122.719 56.7516 122.734 50.917 119.379 47.4197C116.118 44.0374 110.919 43.8975 107.5 47C106.899 47.5513 106.147 47.8229 105.387 47.8229C104.635 47.8229 103.875 47.5513 103.274 47C99.863 43.8975 94.656 44.0375 91.4033 47.4197Z" stroke="#372718" stroke-width="4" stroke-linecap="round" stroke-linejoin="round"/>
<path d="M75.7031 126.255C76.0531 126.255 76.3507 125.991 76.4053 125.644C78.3649 113.205 83.0787 109.819 94.0907 107.013C94.3074 106.958 94.4636 106.761 94.4636 106.537C94.4636 106.294 94.2812 106.088 94.041 106.052C84.6632 104.654 80.2577 101.339 75.9994 87.1401C75.9358 86.9283 75.7398 86.7769 75.5191 86.7769C75.2797 86.7769 75.0731 86.954 75.0268 87.1895C72.4075 100.517 67.1479 103.167 56.8873 106.275C56.6796 106.338 56.5339 106.53 56.5339 106.748C56.5339 106.998 56.7258 107.209 56.9734 107.241C68.594 108.752 73.3305 116.55 75.0028 125.665C75.0651 126.005 75.3586 126.255 75.7031 126.255Z" fill="#372718"/>
<path d="M45.5 49.5H31.5M31.5 30.5H60M31.5 40H56.5339M56.5339 106.748C56.5339 106.998 56.7258 107.209 56.9734 107.241C68.594 108.752 73.3305 116.55 75.0028 125.665C75.0651 126.005 75.3586 126.255 75.7031 126.255C76.0531 126.255 76.3507 125.991 76.4053 125.644C78.3649 113.205 83.0787 109.819 94.0907 107.013C94.3074 106.958 94.4636 106.761 94.4636 106.537C94.4636 106.294 94.2812 106.088 94.041 106.052C84.6632 104.654 80.2577 101.339 75.9994 87.1401C75.9358 86.9283 75.7398 86.7769 75.5191 86.7769C75.2797 86.7769 75.0731 86.954 75.0268 87.1895C72.4075 100.517 67.1479 103.167 56.8873 106.275C56.6796 106.338 56.5339 106.53 56.5339 106.748Z" stroke="#372718" stroke-width="4" stroke-linecap="round"/>
</svg>
